<svg width="30" height="30" viewBox="0 0 30 30" fill="none" xmlns="http://www.w3.org/2000/svg">
<path d="M29.3774 9.53303C29.0335 9.53303 28.7547 9.81184 28.7547 10.1557V12.9337C28.7418 12.9331 28.729 12.9318 28.716 12.9318H1.26836C1.26058 12.9318 1.25298 12.9328 1.24526 12.933V5.42087C1.24526 5.07705 0.966509 4.79824 0.62263 4.79824C0.278752 4.79824 0 5.07705 0 5.42087V24.5791C0 24.923 0.278752 25.2018 0.62263 25.2018C0.966509 25.2018 1.24526 24.923 1.24526 24.5791V20.0741C1.25298 20.0743 1.26058 20.0753 1.26836 20.0753H28.716C28.729 20.0753 28.7418 20.074 28.7547 20.0734V24.5791C28.7547 24.923 29.0335 25.2018 29.3774 25.2018C29.7212 25.2018 30 24.923 30 24.5791V10.1557C30 9.81178 29.7212 9.53303 29.3774 9.53303ZM27.6884 18.2175H2.29589C1.95201 18.2175 1.67326 17.9387 1.67326 17.5949C1.67326 17.2511 1.95201 16.9723 2.29589 16.9723H27.6884C28.0323 16.9723 28.3111 17.2511 28.3111 17.5949C28.3111 17.9387 28.0323 18.2175 27.6884 18.2175Z" fill="#2E3A59"/>
<path d="M10.2812 11.2689C10.2812 10.306 9.50065 9.52549 8.53781 9.52549H3.6813C2.71846 9.52549 1.93793 10.306 1.93793 11.2689V12.2028H10.2812V11.2689Z" fill="#2E3A59"/>
</svg>
