<svg width="30" height="30" viewBox="0 0 30 30" fill="none" xmlns="http://www.w3.org/2000/svg">
<g clip-path="url(#clip0_7_92)">
<path d="M23.953 7.66281C23.953 5.63123 23.6643 3.6696 23.0953 1.8334C22.7544 0.737518 21.7537 0 20.6051 0H9.39503C8.24579 0 7.24513 0.737518 6.90451 1.83425C6.33551 3.6696 6.04709 5.63123 6.04709 7.66281C6.04709 11.0121 7.2616 13.7903 8.28043 15.5299C9.44334 17.5176 9.68655 19.906 8.94848 22.083C8.671 22.8998 8.53627 23.6645 8.53627 24.4226C8.53627 25.6836 8.69598 26.9123 9.01053 28.0747C9.31682 29.2079 10.3516 30.0001 11.5268 30.0001H18.4733C19.6478 30.0001 20.6828 29.208 20.9894 28.0747C21.3039 26.9123 21.4636 25.6835 21.4636 24.4226C21.4636 23.6646 21.3289 22.8999 21.052 22.0841C20.3134 19.906 20.5569 17.5167 21.72 15.531C22.7382 13.7903 23.953 11.0121 23.953 7.66281ZM8.81503 2.42738C8.89434 2.17129 9.12709 2.00028 9.39497 2.00028H20.6051C20.8726 2.00028 21.1057 2.17129 21.1847 2.42622C21.6941 4.07032 21.9524 5.83129 21.9524 7.66274C21.9524 7.74977 21.9428 7.83266 21.9412 7.91853H11.7645C11.7129 8.33682 11.6734 8.75869 11.6734 9.19424C11.6734 10.7883 12.2624 12.1305 12.7565 12.9745C13.0353 13.4512 12.8748 14.0647 12.398 14.3441C12.2394 14.4358 12.0654 14.4808 11.8941 14.4808C11.5502 14.4808 11.2156 14.303 11.0295 13.9846C10.1422 12.4676 9.67282 10.8109 9.67282 9.1943C9.67282 8.76258 9.70217 8.33876 9.74556 7.91859H8.05867C8.05734 7.83266 8.04743 7.74983 8.04743 7.66281C8.04737 5.83135 8.30565 4.07038 8.81503 2.42738Z" fill="#2E3A59"/>
</g>
<defs>
<clipPath id="clip0_7_92">
<rect width="30" height="30" fill="white"/>
</clipPath>
</defs>
</svg>
