<svg width="65" height="65" viewBox="0 0 65 65" fill="none" xmlns="http://www.w3.org/2000/svg">
<path d="M5.41669 10.8333V48.75L18.4167 39C19.3533 38.2947 20.4943 37.9145 21.6667 37.9167H43.3334C46.325 37.9167 48.75 35.4916 48.75 32.5V10.8333C48.75 7.84178 46.325 5.41666 43.3334 5.41666H10.8334C7.84181 5.41666 5.41669 7.84178 5.41669 10.8333ZM10.8334 37.9167V10.8333H43.3334V32.5H19.8629C18.6904 32.4967 17.549 32.8773 16.6129 33.5833L10.8334 37.9167Z" fill="#2E3A59"/>
<path d="M59.5833 59.5833V24.375C59.5833 21.3835 57.1583 18.9583 54.1666 18.9583V48.75L48.3871 44.4167C47.4511 43.7106 46.3095 43.3301 45.1371 43.3333H18.9583C18.9583 46.325 21.3834 48.75 24.375 48.75H43.3333C44.5058 48.7478 45.6468 49.1281 46.5833 49.8333L59.5833 59.5833Z" fill="#2E3A59"/>
</svg>
