<svg width="120" height="120" viewBox="0 0 120 120" fill="none" xmlns="http://www.w3.org/2000/svg">
<path d="M60.0005 110C52.441 110.022 44.9766 108.311 38.1805 105C35.6933 103.79 33.3102 102.377 31.0555 100.775L30.3705 100.275C24.1696 95.698 19.0999 89.761 15.5505 82.92C11.8792 75.8395 9.97505 67.976 10.0003 60C10.0003 32.3858 32.3863 10 60.0005 10C87.6145 10 110.001 32.3858 110.001 60C110.026 67.972 108.124 75.832 104.456 82.91C100.911 89.747 95.8485 95.682 89.6555 100.26C87.3195 101.97 84.84 103.476 82.2455 104.76L81.8455 104.96C75.045 108.289 67.572 110.013 60.0005 110ZM60.0005 85C52.508 84.9855 45.6388 89.17 42.2155 95.835C53.4225 101.386 66.5785 101.386 77.7855 95.835V95.81C74.358 89.1525 67.4885 84.977 60.0005 85ZM60.0005 75C70.831 75.014 80.8175 80.8505 86.1455 90.28L86.2205 90.215L86.2905 90.155L86.2055 90.23L86.1555 90.27C98.8005 79.3455 103.322 61.7115 97.4935 46.0506C91.6655 30.3894 76.716 20.0016 60.0055 20.0016C43.2951 20.0016 28.3455 30.3894 22.5173 46.0506C16.6891 61.7115 21.2105 79.3455 33.8555 90.27C39.1868 80.845 49.1723 75.013 60.0005 75ZM60.0005 70C48.9548 70 40.0005 61.0455 40.0005 50C40.0005 38.9543 48.9548 30 60.0005 30C71.046 30 80.0005 38.9543 80.0005 50C80.0005 55.3045 77.8935 60.3915 74.1425 64.142C70.392 67.893 65.305 70 60.0005 70ZM60.0005 40C54.4775 40 50.0005 44.4772 50.0005 50C50.0005 55.523 54.4775 60 60.0005 60C65.5235 60 70.0005 55.523 70.0005 50C70.0005 44.4772 65.5235 40 60.0005 40Z" fill="#2E3A59"/>
</svg>
