<svg width="65" height="65" viewBox="0 0 65 65" fill="none" xmlns="http://www.w3.org/2000/svg">
<path d="M54.1667 56.875H10.8333C9.33757 56.875 8.125 55.6625 8.125 54.1667V34.3958C8.125 33.6156 8.4617 32.8732 9.04854 32.3592L13.5417 28.4375V10.8333C13.5417 9.33757 14.7542 8.125 16.25 8.125H54.1667C55.6625 8.125 56.875 9.33757 56.875 10.8333V54.1667C56.875 55.6625 55.6625 56.875 54.1667 56.875ZM24.375 19.8494C25.0307 19.8501 25.6639 20.0888 26.1571 20.521L39.6987 32.37C40.2837 32.8811 40.6212 33.6191 40.625 34.3958V51.4583H51.4583V13.5417H18.9583V23.6979L22.5902 20.5183C23.0844 20.0865 23.7187 19.8487 24.375 19.8494ZM21.6667 43.3333H27.0833V51.4583H35.2083V35.6335L24.375 26.1544L13.5417 35.6335V51.4583H21.6667V43.3333Z" fill="#2E3A59"/>
</svg>
