<svg width="60" height="49" viewBox="0 0 60 49" fill="none" xmlns="http://www.w3.org/2000/svg">
<path d="M5 24.1777L27.7678 2.67739C28.7246 1.7742 30.2754 1.7742 31.2321 2.67739L54 24.1777H49.1V42.6864C49.1 43.9642 48.0031 45 46.65 45H34.4V28.8049H24.6V45H12.35C10.9969 45 9.9 43.9642 9.9 42.6864V24.1777H5Z" fill="#2E3A59"/>
<rect x="24" y="29" width="11" height="16" fill="#2E3A59"/>
<path d="M24.9845 23.7982C24.9845 21.0013 27.2716 18.7339 30.0929 18.7339C32.9141 18.7339 35.2012 21.0013 35.2012 23.7982C35.2012 26.5951 32.9141 28.8625 30.0929 28.8625C27.2716 28.8625 24.9845 26.5951 24.9845 23.7982ZM30.0929 26.8368C31.7857 26.8368 33.1579 25.4763 33.1579 23.7982C33.1579 22.12 31.7857 20.7596 30.0929 20.7596C28.4001 20.7596 27.0279 22.12 27.0279 23.7982C27.0279 25.4763 28.4001 26.8368 30.0929 26.8368Z" fill="white"/>
<path d="M24.3134 32.2485C22.7806 33.7681 21.9195 35.8292 21.9195 37.9782H23.9628C23.9628 36.3664 24.6087 34.8207 25.7583 33.681C26.9079 32.5413 28.4671 31.901 30.0929 31.901C31.7187 31.901 33.2778 32.5413 34.4274 33.681C35.5771 34.8207 36.2229 36.3664 36.2229 37.9782H38.2662C38.2662 35.8292 37.4051 33.7681 35.8724 32.2485C34.3396 30.729 32.2606 29.8753 30.0929 29.8753C27.9252 29.8753 25.8462 30.729 24.3134 32.2485Z" fill="white"/>
</svg>
