<svg width="30" height="30" viewBox="0 0 30 30" fill="none" xmlns="http://www.w3.org/2000/svg">
<path d="M18.5691 9.33554C16.5877 8.19452 13.3855 8.18839 11.4163 9.33554C9.44712 10.4766 9.45939 12.3353 11.4408 13.4763C13.4223 14.6173 16.6245 14.6173 18.5875 13.4763C20.5628 12.3292 20.5506 10.4766 18.5691 9.33554ZM17.6612 11.1329C17.4894 11.1882 17.3238 11.2434 17.1459 11.2924C17.0416 11.3231 16.9803 11.3293 16.9312 11.3047C16.9067 11.2924 16.8821 11.2618 16.8637 11.225C16.7472 11.0409 16.5754 10.8814 16.3362 10.7465C16.3116 10.7281 16.2809 10.7158 16.2503 10.6974C16.1767 10.6606 16.0969 10.6238 16.0049 10.6054C15.6736 10.5318 15.3853 10.6545 15.4282 10.8569C15.4467 10.9612 15.5019 11.0593 15.5693 11.1575C15.6859 11.3231 15.8147 11.4887 15.9006 11.6605C16.1767 12.2126 15.5755 12.7525 14.6185 12.8077C14.2688 12.8261 13.9437 12.7831 13.637 12.685C13.502 12.642 13.4039 12.642 13.2996 12.7095C13.2014 12.7709 13.091 12.8322 12.9867 12.8935C12.8947 12.9488 12.7966 12.9488 12.6984 12.8935C12.6309 12.8567 12.5634 12.8199 12.496 12.7831C12.4469 12.7586 12.4039 12.7279 12.3549 12.6972C12.2567 12.642 12.269 12.5807 12.3671 12.5193C12.4408 12.4764 12.5205 12.4273 12.5941 12.3844C12.7659 12.2862 12.7659 12.274 12.6248 12.1635C12.4469 12.0224 12.2874 11.8752 12.1892 11.7096C12.1095 11.5808 12.134 11.5501 12.3303 11.4826C12.4837 11.4335 12.6309 11.3845 12.7843 11.3354C12.8947 11.2986 12.956 11.2924 13.0051 11.317C13.0297 11.3354 13.0542 11.3599 13.0726 11.4029C13.1769 11.5869 13.3364 11.7587 13.545 11.912C13.5818 11.9366 13.6186 11.9611 13.6554 11.9856C13.7658 12.0531 13.8946 12.1022 14.048 12.139C14.4222 12.2249 14.7719 12.0715 14.7289 11.8384C14.7166 11.7587 14.6737 11.6851 14.6246 11.6053C14.4958 11.4151 14.3302 11.2311 14.2382 11.0287C14.0971 10.7035 14.1584 10.4029 14.6185 10.1698C15.1338 9.90605 15.7104 9.88764 16.3178 10.0533C16.5693 10.1208 16.5693 10.1208 16.7594 10.0103C16.8269 9.97353 16.8883 9.93672 16.9557 9.89991C17.103 9.82016 17.152 9.82016 17.2993 9.89991C17.3177 9.90605 17.3299 9.91832 17.3422 9.92445C17.3729 9.94286 17.4036 9.96126 17.4281 9.97966C17.7348 10.1576 17.7348 10.1576 17.4342 10.3355C17.2195 10.4582 17.2195 10.4643 17.3974 10.6054C17.5385 10.7158 17.6489 10.8385 17.7348 10.9612C17.8023 11.0471 17.7778 11.0961 17.6612 11.1329ZM29.8136 13.2187L11.815 2.83298C11.5697 2.69188 11.1648 2.69188 10.9194 2.83298L0.196304 9.06562C-0.0490759 9.20672 -0.0490759 9.43983 0.196304 9.58705L18.1888 19.9728C18.4403 20.12 18.839 20.1138 19.0844 19.9728L29.8136 13.7401C30.059 13.599 30.0651 13.3659 29.8136 13.2187ZM20.434 17.5742C20.3358 17.476 20.2132 17.3901 20.0721 17.3104C19.158 16.7828 17.6796 16.7828 16.7656 17.3104C16.6981 17.3533 16.6367 17.3901 16.5754 17.4392L4.45364 10.4336C4.5702 10.3845 4.68062 10.3355 4.7849 10.2741C5.69281 9.74655 5.68667 8.88772 4.77264 8.36016C4.67448 8.30495 4.56406 8.24973 4.45364 8.20679L9.45325 5.30518C9.533 5.36652 9.61888 5.434 9.71704 5.48921C10.6311 6.01678 12.1156 6.01678 13.0235 5.48921C13.1278 5.42787 13.2198 5.36652 13.2934 5.29904L25.452 12.323C25.2925 12.3782 25.1392 12.4457 25.0042 12.5255C24.0963 13.053 24.1024 13.9119 25.0165 14.4394C25.1576 14.5192 25.3171 14.5867 25.4827 14.648L20.434 17.5742ZM21.9001 14.9241L21.1088 15.3842C20.9861 15.4516 20.7898 15.4578 20.6671 15.3842L19.2746 14.5805C19.1519 14.5069 19.1519 14.3965 19.2746 14.3229L20.0659 13.8628C20.1886 13.7953 20.3849 13.7892 20.5076 13.8628L21.9001 14.6664C22.0228 14.74 22.0228 14.8566 21.9001 14.9241ZM10.7354 8.47671L9.94401 8.9368C9.82132 9.00428 9.62502 9.01041 9.50233 8.9368L8.1098 8.13318C7.98711 8.05957 7.98711 7.94914 8.1098 7.87553L8.90115 7.41544C9.02384 7.34796 9.22014 7.34183 9.34283 7.41544L10.7354 8.21906C10.8581 8.29268 10.8581 8.40923 10.7354 8.47671ZM28.599 16.4147L29.9977 17.2245L18.7531 23.7577L18.3851 23.5492L17.3483 22.9541L0 12.9181L1.3864 12.1145L18.7409 22.1382L28.599 16.4147ZM28.5745 19.9543L29.9731 20.7641L18.7715 27.2728L18.4096 27.0642L17.3729 26.4692L0 16.4147L1.3864 15.6111L18.7654 25.6594L28.5745 19.9543Z" fill="#2E3A59"/>
</svg>
