<svg width="30" height="30" viewBox="0 0 30 30" fill="none" xmlns="http://www.w3.org/2000/svg">
<path d="M18.75 7.5C20.8213 7.5 22.5 5.82129 22.5 3.75C22.5 1.67871 20.8213 0 18.75 0C16.6787 0 15 1.67871 15 3.75C15 5.82129 16.6787 7.5 18.75 7.5ZM16.9553 17.4463C17.7791 18.426 19.2404 18.5648 20.2348 17.7521L25.391 13.5322C26.3924 12.7131 26.5389 11.2359 25.7203 10.2346C24.9018 9.23203 23.424 9.08672 22.4209 9.90527L19.0553 12.6592L16.7754 9.9457C15.8707 8.86816 14.4773 8.30977 13.0254 8.46152C11.608 8.60684 10.374 9.41484 9.72246 10.6248L6.82969 16.0172C5.45859 18.5742 6.32051 21.6639 8.83301 23.2682L11.4586 25.3125H6.09375C4.79941 25.3125 3.75 26.3619 3.75 27.6562C3.75 28.9506 4.79941 30 6.09375 30H18.2813C20.2781 30 21.4318 27.4928 19.9383 25.9992L13.5012 19.5621L15.5402 15.7611L16.9553 17.4463Z" fill="#2E3A59"/>
</svg>
