<svg width="30" height="30" viewBox="0 0 30 30" fill="none" xmlns="http://www.w3.org/2000/svg">
<g clip-path="url(#clip0_7_152)">
<path d="M13.0801 23.3385H10.9533V21.3293C15.1706 20.5684 18.3642 16.8797 18.3642 12.4569C18.3642 11.2611 18.1357 10.1198 17.7094 9.07504C17.2449 8.90012 16.7497 8.80644 16.2383 8.80644C15.4268 8.80644 14.6545 9.03681 13.9882 9.46504C14.5474 10.3282 14.8724 11.3548 14.8724 12.4569C14.8724 15.5004 12.3996 17.9752 9.35606 17.9752C6.31448 17.9752 3.84069 15.5004 3.84069 12.4569C3.84069 10.1408 5.27545 8.15645 7.30094 7.33918C7.71388 6.69206 8.20042 6.08412 8.75673 5.52876C9.51569 4.77076 10.3722 4.1418 11.3003 3.65526C10.6752 3.51761 10.0252 3.44305 9.35989 3.44305C4.39032 3.44305 0.330734 7.4883 0.330734 12.4579C0.330734 16.7822 3.39717 20.4012 7.43954 21.271V23.3395H5.45802C4.49164 23.3395 3.70782 24.1319 3.70782 25.0964C3.70782 26.0637 4.49164 26.8552 5.45802 26.8552H7.43954V28.2527C7.43954 29.2171 8.23101 30 9.19643 30C10.1628 30 10.9533 29.2171 10.9533 28.2527V26.8552H13.0801C14.0465 26.8552 14.8284 26.0637 14.8284 25.0964C14.8284 24.131 14.0456 23.3385 13.0801 23.3385Z" fill="#2E3A59"/>
<path d="M27.8445 -8.17352e-07C27.7642 -0.0038243 22.2555 0.0592632 22.2555 0.0592632C21.2767 0.0707336 20.4891 1.03043 20.5025 2.01306C20.5149 2.98614 21.3083 3.92098 22.2775 3.92098C22.2833 3.92098 22.2928 3.92098 22.3005 3.92098L23.3261 3.75179L21.4574 5.54596C19.9337 4.48686 18.1319 3.87032 16.2393 3.87032C13.7932 3.87032 11.4934 4.8042 9.76326 6.53338C6.99888 9.2968 6.37566 13.3937 7.88784 16.7631C7.98534 16.7956 8.0838 16.8262 8.18416 16.8539C8.51776 16.9447 8.86188 16.9935 9.20503 17.0049C9.25474 17.0069 9.3054 17.0078 9.35606 17.0078C10.1991 17.0078 11.0212 16.7736 11.7381 16.3301C10.1102 14.1373 10.288 11.0174 12.2772 9.02724C13.3344 7.96909 14.7424 7.38506 16.2402 7.38506C17.7381 7.38506 19.1451 7.96814 20.2033 9.02724C22.3913 11.2143 22.3913 14.772 20.2033 16.9571C19.3965 17.7658 18.3852 18.2963 17.2841 18.5018C17.2085 18.6012 17.1311 18.7007 17.0527 18.7972C16.0223 20.0494 14.7061 21.0292 13.2254 21.6543C14.1823 21.986 15.1974 22.159 16.2393 22.159C18.6863 22.159 20.9861 21.2022 22.7172 19.472C25.8219 16.3664 26.3333 11.5679 24.0411 8.01975L26.1526 6.02007V7.26175C26.1526 8.24247 26.9288 9.03871 27.9095 9.03871C28.8912 9.03871 29.6683 8.24247 29.6683 7.26175V1.76262C29.6693 1.28756 29.589 0.108013 27.8445 -8.17352e-07Z" fill="#2E3A59"/>
</g>
<defs>
<clipPath id="clip0_7_152">
<rect width="30" height="30" fill="white"/>
</clipPath>
</defs>
</svg>
